<?xml version="1.0" standalone="no"?>
<!DOCTYPE svg PUBLIC "-//W3C//DTD SVG 20010904//EN"
 "http://www.w3.org/TR/2001/REC-SVG-20010904/DTD/svg10.dtd">
<svg version="1.0" xmlns="http://www.w3.org/2000/svg"
 width="621.000000pt" height="621.000000pt" viewBox="0 0 621.000000 621.000000"
 preserveAspectRatio="xMidYMid meet">
<metadata>
Created by potrace 1.14, written by Peter Selinger 2001-2017
</metadata>
<g transform="translate(0.000000,621.000000) scale(0.100000,-0.100000)"
fill="#000000" stroke="none">
<path d="M5960 6198 c19 -5 41 -14 47 -20 9 -7 20 -6 38 6 14 9 25 19 25 21 0
3 -33 5 -72 4 -66 -1 -70 -2 -38 -11z"/>
<path d="M6130 6200 c0 -5 5 -10 10 -10 6 0 10 5 10 10 0 6 -4 10 -10 10 -5 0
-10 -4 -10 -10z"/>
<path d="M3308 5454 c-20 -10 -31 -27 -39 -59 -6 -25 -15 -45 -20 -45 -4 0 -6
-9 -4 -20 3 -13 0 -18 -7 -14 -7 5 -9 -2 -6 -18 l5 -26 -31 19 c-17 10 -49 19
-70 19 -31 0 -45 -7 -69 -32 l-31 -33 -27 28 c-22 21 -37 27 -71 27 -45 0 -88
-26 -88 -53 0 -7 -8 3 -16 20 -12 24 -27 36 -54 44 -71 22 -123 -9 -135 -80
-4 -23 -11 -41 -16 -41 -6 0 -9 -18 -7 -40 1 -30 6 -40 19 -40 9 0 19 7 23 15
3 8 13 15 22 15 15 0 14 -4 -6 -25 -28 -29 -51 -28 -87 7 -38 35 -83 44 -123
23 -17 -9 -35 -26 -39 -38 -14 -36 -25 -119 -22 -162 2 -31 -3 -45 -18 -59
-31 -28 -26 -63 15 -113 41 -50 80 -73 124 -73 21 0 30 -5 30 -16 0 -9 13 -32
30 -50 32 -37 31 -52 -6 -89 -14 -14 -21 -30 -18 -42 5 -17 1 -19 -30 -15 -69
8 -126 -26 -126 -75 0 -13 -4 -23 -10 -23 -5 0 -10 11 -10 25 0 34 -39 72 -84
80 -44 9 -94 -18 -116 -61 -13 -26 -15 -27 -18 -8 -6 38 -45 65 -97 67 -41 2
-50 -2 -75 -30 l-29 -32 -15 23 c-52 80 -185 45 -190 -51 -1 -21 -8 -49 -15
-62 -18 -32 -1 -49 34 -33 42 19 109 15 139 -9 35 -27 35 -76 1 -113 -28 -31
-30 -36 -12 -36 6 0 24 -14 39 -32 l26 -33 22 28 c12 15 27 27 35 27 29 0 23
29 -10 44 -82 39 -41 136 57 136 54 0 76 -10 88 -40 11 -28 6 -90 -8 -90 -4 0
-15 -7 -26 -15 -18 -14 -18 -15 8 -45 37 -44 35 -92 -4 -132 -28 -27 -29 -31
-14 -42 9 -7 18 -32 21 -57 4 -38 1 -48 -22 -73 l-27 -29 23 -18 c19 -14 24
-27 24 -64 0 -38 -5 -49 -28 -68 -54 -42 -146 -15 -147 44 0 8 -5 20 -11 26
-15 15 14 63 42 70 25 7 25 9 -16 54 l-34 38 -21 -29 c-39 -55 -102 -50 -160
12 -29 31 -25 51 16 87 l35 32 -21 17 c-13 11 -23 33 -27 59 -5 39 -2 45 27
73 18 17 31 32 29 33 -2 2 -16 11 -31 20 -15 10 -30 28 -34 42 -3 14 -10 25
-15 25 -5 0 -14 11 -21 25 -26 58 -122 69 -171 19 l-25 -25 -30 31 c-44 43
-101 43 -146 -2 -28 -28 -34 -43 -40 -97 -4 -35 -5 -66 -2 -69 3 -3 17 0 31 6
52 24 134 5 149 -33 14 -36 6 -75 -20 -99 l-27 -24 22 -35 c11 -19 21 -46 21
-61 0 -31 -28 -78 -41 -70 -18 11 -8 -4 25 -39 l34 -36 38 36 38 36 -24 21
c-14 11 -31 34 -38 50 -12 27 -11 30 33 70 l45 42 -30 26 c-23 20 -29 32 -25
57 5 42 12 51 52 68 62 25 143 -7 143 -57 0 -50 -17 -80 -50 -87 -38 -7 -47
-20 -19 -28 26 -8 51 -67 43 -99 -3 -13 -17 -33 -30 -45 l-25 -21 31 -33 c32
-34 32 -52 1 -97 -15 -20 -28 -26 -71 -28 -47 -3 -56 0 -84 27 l-31 30 -20
-29 c-11 -16 -30 -35 -43 -42 l-24 -12 31 -26 c70 -57 40 -139 -55 -147 -44
-4 -52 -1 -81 27 -18 17 -33 37 -33 45 0 7 -5 15 -12 17 -7 3 -9 12 -4 23 6
16 9 17 16 6 6 -11 15 -8 39 17 17 17 41 32 53 34 18 3 16 6 -17 28 -21 14
-43 32 -48 41 -12 19 -3 62 18 83 21 20 19 36 -7 63 -32 34 -30 89 5 119 30
25 35 49 13 57 -8 3 -24 31 -36 63 -23 63 -39 80 -87 89 -74 14 -133 -42 -133
-127 0 -33 -3 -40 -11 -28 -8 11 -9 8 -4 -15 8 -39 21 -51 37 -38 23 19 77 25
111 13 57 -18 75 -94 36 -144 -19 -24 -19 -29 -7 -49 22 -34 9 -113 -22 -132
-22 -13 -99 -6 -126 11 -52 35 -49 75 10 126 27 22 29 27 14 33 -9 4 -22 22
-28 41 -6 19 -16 34 -21 34 -5 0 -9 9 -9 21 0 35 -53 79 -95 79 -42 0 -90 -22
-103 -48 -5 -9 -12 -57 -16 -105 -4 -48 -9 -94 -12 -102 -8 -21 -24 -19 -24 4
0 10 -12 30 -26 45 -37 37 -98 36 -142 -1 -27 -23 -35 -38 -41 -84 -4 -31 -3
-62 2 -70 6 -9 1 -35 -13 -74 -33 -93 -34 -101 -12 -123 11 -11 22 -26 25 -33
4 -11 9 -9 21 8 34 46 138 35 166 -17 14 -25 27 -25 35 0 3 11 12 20 20 20 7
0 15 5 17 11 2 6 25 13 50 16 43 5 50 3 78 -25 31 -31 32 -37 13 -105 -2 -9
-13 -22 -24 -27 -25 -14 -24 -35 4 -55 17 -12 22 -25 22 -61 0 -39 -5 -50 -30
-70 -35 -28 -77 -30 -120 -5 -67 39 -71 106 -8 143 34 21 35 22 17 37 -11 9
-29 32 -41 51 -18 28 -23 31 -23 14 0 -23 -41 -67 -67 -70 -9 -2 -19 -8 -23
-14 -10 -16 -61 6 -67 30 -3 11 -9 20 -14 20 -5 0 -9 7 -9 15 0 8 -4 15 -10
15 -5 0 -10 7 -10 16 0 13 -3 14 -13 5 -17 -14 -27 -4 -27 26 0 59 -91 98
-155 67 -54 -25 -66 -58 -60 -156 5 -79 1 -106 -28 -166 -10 -20 -6 -33 23
-87 38 -71 59 -85 128 -85 l48 0 -3 -32 c-4 -33 2 -43 69 -122 24 -28 32 -31
82 -30 l56 0 0 -32 c0 -20 11 -45 30 -69 17 -21 30 -33 30 -26 0 20 65 44 102
37 53 -10 80 -44 76 -97 -2 -34 -8 -46 -26 -55 -43 -21 -48 -33 -24 -50 12 -8
29 -29 38 -45 14 -28 14 -33 -4 -67 -27 -53 -69 -75 -113 -61 -45 16 -77 45
-84 80 -9 41 2 65 41 89 33 21 45 40 23 40 -13 0 -39 25 -39 38 0 4 -14 34
-31 66 -34 62 -56 76 -121 76 -32 0 -47 -7 -74 -34 -32 -32 -39 -50 -35 -85 2
-7 -2 -10 -8 -7 -18 12 -22 -33 -5 -69 18 -38 24 -41 42 -23 7 7 39 13 71 14
73 3 101 -17 101 -74 0 -43 -5 -51 -42 -75 -29 -18 -108 -24 -108 -7 0 6 -7
10 -15 10 -8 0 -19 17 -26 40 -7 22 -17 40 -23 40 -6 0 -19 13 -28 29 -25 45
-84 58 -143 32 -59 -26 -76 -64 -68 -147 3 -32 10 -65 16 -72 8 -10 4 -26 -13
-60 -13 -26 -28 -58 -35 -72 -12 -27 -9 -70 6 -70 5 0 9 -6 9 -14 0 -8 16 -28
35 -44 34 -30 75 -43 125 -39 20 2 26 -3 28 -23 2 -14 13 -35 24 -47 20 -22
20 -22 2 -67 -11 -25 -22 -46 -26 -46 -15 0 -8 -54 13 -97 31 -64 74 -103 113
-103 48 0 96 19 123 49 l24 26 -21 -42 c-11 -24 -24 -43 -29 -43 -17 0 -19
-55 -4 -85 9 -16 31 -49 50 -72 53 -66 127 -71 186 -12 l30 30 26 -24 c37 -35
68 -49 104 -47 54 3 57 1 57 -33 0 -23 12 -50 41 -88 51 -68 78 -83 140 -76
l47 6 7 -42 c4 -23 18 -55 31 -70 13 -16 24 -35 24 -42 0 -19 45 -52 81 -60
37 -8 84 9 122 44 17 16 31 22 35 15 17 -25 67 -54 93 -54 34 0 76 17 106 43
22 19 22 19 46 -7 43 -46 127 -57 127 -18 0 14 2 14 9 3 8 -12 13 -12 34 2 14
9 28 26 32 37 8 27 16 25 49 -9 33 -35 75 -54 107 -49 21 3 23 8 22 58 -1 55
-1 55 6 10 7 -52 24 -58 54 -18 18 23 20 40 18 128 l-2 102 40 -32 c24 -20 52
-32 73 -33 l33 -2 3 52 c2 29 8 53 14 53 6 0 9 -18 6 -45 -4 -52 7 -57 42 -20
26 28 48 32 56 10 8 -20 91 -58 114 -52 25 7 42 -15 35 -45 -5 -19 5 -35 53
-85 63 -66 91 -79 147 -69 32 6 35 5 40 -21 12 -56 89 -168 127 -184 49 -20
109 -5 144 36 l32 36 19 -26 c10 -14 37 -32 61 -40 36 -13 47 -13 75 -1 17 7
41 23 51 35 25 27 30 27 66 -8 30 -28 84 -45 105 -33 6 4 17 7 25 9 37 5 57
48 63 138 4 54 2 95 -4 107 -19 35 0 32 37 -4 19 -20 48 -38 64 -41 37 -8 87
7 116 34 l23 22 31 -27 c17 -14 42 -29 56 -32 36 -9 89 4 109 26 22 25 39 98
39 177 l1 62 21 -20 c29 -28 86 -43 99 -27 6 7 21 13 35 13 36 0 58 52 61 145
1 41 -1 86 -5 100 -7 23 -6 23 21 -7 55 -63 132 -67 185 -10 21 22 32 28 35
19 8 -21 83 -63 106 -60 15 2 24 12 28 33 l7 30 1 -27 c1 -35 11 -35 44 -2
l26 26 33 -25 c18 -14 45 -28 60 -32 25 -6 28 -4 38 34 13 50 25 54 16 6 -9
-46 7 -46 51 1 l34 36 20 -26 c57 -73 165 -73 198 1 11 24 14 25 22 11 17 -30
74 -58 121 -58 60 0 78 21 104 123 15 59 25 81 35 78 100 -25 131 -3 160 117
l20 84 -24 41 c-23 40 -24 45 -11 92 20 77 18 103 -15 136 -23 22 -39 29 -70
29 -24 0 -46 7 -56 17 -14 13 -18 14 -25 3 -4 -7 -6 -19 -3 -27 3 -8 -3 -23
-12 -33 -17 -19 -19 -19 -37 -4 -21 20 -22 34 -7 104 9 42 14 50 27 44 56 -23
102 -16 138 23 l24 25 35 -31 c45 -39 77 -47 123 -29 34 12 39 19 59 83 12 39
24 83 28 98 4 23 10 27 23 21 35 -15 92 -16 115 -1 26 17 67 134 67 192 0 28
-7 46 -25 65 -24 25 -24 27 -11 76 21 81 -7 129 -79 135 -69 5 -84 0 -103 -36
l-18 -36 -22 24 c-22 23 -22 26 -9 83 8 34 11 68 6 80 -14 39 -58 64 -110 64
l-48 0 -28 -57 -28 -58 -5 44 c-6 54 -38 81 -104 88 -43 5 -48 3 -79 -30 -31
-35 -33 -35 -55 -18 -22 16 -22 20 -14 91 5 41 6 85 1 96 -12 35 -49 54 -101
54 -46 0 -54 -4 -83 -45 -13 -18 -15 -19 -30 -4 -14 13 -15 27 -10 73 8 60 16
66 54 40 29 -21 100 -13 118 12 15 20 27 61 45 146 11 54 10 60 -10 88 -19 25
-21 37 -16 84 5 42 3 61 -9 79 -11 18 -14 39 -10 84 6 69 -4 96 -48 118 -41
22 -109 16 -123 -10 -6 -11 -12 -22 -13 -24 -1 -2 -12 7 -23 20 -17 20 -20 34
-17 84 3 36 -1 70 -8 85 -10 19 -11 38 -3 77 6 29 8 63 4 77 -9 35 -56 58
-114 54 -44 -3 -48 -6 -68 -45 l-21 -41 -10 32 c-7 21 -7 56 0 99 8 57 7 71
-7 93 -12 17 -17 46 -17 92 1 37 0 85 0 107 -1 22 0 59 2 82 2 30 -2 47 -15
62 -15 17 -17 30 -11 76 3 30 4 64 0 75 -8 26 -55 50 -98 50 -36 0 -87 -32
-87 -55 0 -7 -15 -35 -33 -63 -32 -46 -33 -50 -16 -61 10 -6 26 -22 35 -36 14
-21 14 -30 4 -55 -7 -17 -22 -37 -33 -45 -20 -14 -20 -15 11 -46 37 -38 41
-75 12 -112 l-21 -26 36 -32 c39 -36 46 -78 19 -117 -12 -18 -25 -22 -64 -22
-42 0 -52 4 -74 31 -31 37 -33 77 -5 113 l20 26 -25 10 c-59 22 -71 103 -20
136 31 21 30 37 -1 58 -30 19 -34 73 -10 110 15 23 15 25 -15 46 -58 41 -31
111 49 125 32 5 46 3 70 -14 34 -25 37 -21 47 67 6 57 5 59 -26 85 -23 20 -42
27 -73 27 -23 0 -47 -4 -54 -8 -6 -4 -25 -37 -42 -74 -16 -37 -37 -68 -46 -70
-14 -3 -13 -6 5 -26 18 -19 21 -30 15 -60 -4 -20 -14 -45 -22 -54 -14 -16 -13
-20 16 -47 57 -53 36 -131 -38 -137 -31 -3 -46 2 -71 22 -60 51 -60 93 2 132
21 14 27 22 16 22 -9 0 -30 8 -47 18 -41 23 -43 73 -4 114 l27 28 -22 23 c-30
32 -28 71 4 96 28 22 83 28 114 11 22 -12 27 -1 36 74 6 50 5 54 -26 79 -56
47 -140 31 -154 -30 -4 -16 -12 -41 -19 -58 l-12 -30 -10 55 c-9 45 -16 58
-44 77 -66 45 -130 21 -156 -57 -9 -27 -26 -56 -37 -64 -20 -15 -20 -15 7 -39
20 -17 28 -32 27 -55 -1 -46 -11 -72 -28 -72 -11 0 -9 -8 9 -32 35 -47 41 -83
20 -118 -15 -26 -23 -30 -59 -30 -33 0 -48 7 -78 34 -43 41 -44 52 -11 99 l24
36 -30 31 c-17 16 -33 30 -35 30 -3 0 -11 -15 -19 -34 -11 -26 -12 -40 -3 -64
30 -79 -80 -139 -146 -79 -40 37 -42 63 -6 99 27 27 29 33 16 40 -45 25 -40
92 10 118 26 15 32 30 11 30 -28 0 -57 37 -57 72 0 39 20 63 62 73 39 10 97
-12 103 -38 12 -58 9 -84 -14 -103 -18 -16 -17 -17 5 -41 13 -14 24 -32 24
-39 0 -21 18 -17 25 6 3 10 19 30 36 44 28 24 28 26 10 35 -58 32 -71 97 -25
128 29 19 98 21 119 3 15 -12 25 14 25 68 0 47 -16 71 -57 88 -46 20 -87 10
-117 -28 -22 -29 -24 -29 -30 -11 -4 11 -24 28 -45 38 -63 28 -115 7 -140 -55
l-10 -25 0 23 c-1 35 -53 82 -90 82 -46 0 -79 -17 -100 -50 l-19 -31 -6 25
c-7 28 -52 56 -88 56 -13 -1 -35 -7 -50 -16z m120 -180 c18 -20 22 -34 18 -56
-3 -15 -9 -41 -12 -56 -4 -19 -1 -32 10 -41 20 -17 21 -78 1 -118 -12 -24 -13
-37 -5 -59 12 -31 6 -85 -13 -115 -9 -15 -7 -24 12 -49 18 -25 21 -39 17 -66
-8 -42 -30 -54 -95 -54 -42 0 -53 4 -70 26 -28 36 -27 75 3 103 l25 23 -36 36
c-30 30 -37 33 -44 19 -5 -9 -16 -23 -24 -31 -20 -19 -19 -28 5 -49 27 -23 27
-80 0 -107 l-21 -21 25 -29 c42 -51 42 -73 -2 -138 -15 -22 -127 15 -141 45
-13 29 -14 63 -2 63 5 0 14 14 21 30 13 32 2 60 -26 60 -16 0 -28 35 -20 63 3
12 21 33 40 47 l33 24 -28 29 c-37 37 -38 78 -4 105 30 24 32 38 6 52 -87 46
-55 130 50 130 43 0 49 -3 68 -33 17 -28 19 -40 11 -67 -5 -19 -14 -36 -19
-39 -5 -3 3 -21 19 -39 l27 -33 32 30 31 29 -25 28 c-32 35 -32 74 1 114 l27
31 -22 15 c-11 8 -28 29 -37 47 -16 31 -16 31 16 60 29 26 38 29 79 24 33 -4
52 -12 69 -33z m212 -4 c23 -23 27 -79 8 -110 -10 -16 -9 -25 5 -49 22 -37 21
-59 -2 -94 -18 -28 -18 -29 2 -66 23 -43 19 -79 -15 -111 l-22 -20 32 -33 c56
-57 37 -113 -41 -123 -38 -5 -48 -4 -53 10 -3 9 -14 16 -25 16 -18 0 -39 27
-39 52 0 7 14 28 30 47 l30 33 -33 22 c-24 17 -33 30 -35 57 -3 30 2 41 29 63
26 22 30 29 18 37 -8 5 -17 9 -20 9 -8 0 -29 48 -29 66 0 9 13 28 29 44 l28
29 -23 20 c-32 28 -33 84 -2 105 33 23 103 21 128 -4z m-637 -130 c34 -27 41
-52 26 -94 -10 -29 -18 -35 -48 -39 -69 -9 -141 44 -126 92 10 31 54 61 90 61
18 0 44 -9 58 -20z m1236 -26 c22 -9 43 -25 46 -35 9 -26 -3 -75 -20 -89 -12
-10 -11 -18 10 -54 22 -38 22 -43 9 -71 -7 -16 -19 -38 -26 -48 -11 -16 -10
-21 10 -37 30 -25 40 -87 19 -115 -12 -16 -26 -20 -67 -18 -28 1 -57 8 -64 15
-19 20 -36 54 -36 74 0 25 39 64 64 64 16 0 12 6 -19 27 -72 48 -79 70 -40
122 l24 34 -24 19 c-41 32 -31 89 20 116 28 16 48 15 94 -4z m-1450 -131 c33
-32 43 -60 30 -85 -23 -44 -46 -58 -98 -58 -47 0 -50 2 -70 40 -25 47 -20 63
28 95 42 29 85 32 110 8z m208 -174 c43 -16 39 -114 -5 -134 -27 -12 -28 -22
-2 -30 54 -17 63 -100 14 -132 -33 -21 -112 -13 -128 13 -33 56 -24 84 37 116
l42 21 -30 11 c-55 20 -73 35 -77 65 -5 34 6 52 47 74 29 15 52 14 102 -4z
m866 -200 l31 -31 19 26 c16 22 26 26 73 26 66 0 94 -22 94 -75 0 -38 -28 -75
-57 -75 -11 0 -1 -11 24 -25 23 -14 45 -35 48 -46 10 -30 -3 -87 -21 -97 -14
-8 -12 -13 10 -35 47 -48 22 -125 -47 -142 -31 -8 -82 21 -108 61 l-19 31 30
41 c34 48 36 52 14 52 -8 0 -22 16 -30 35 -17 41 -10 61 33 96 21 16 24 23 14
27 -8 3 -29 20 -48 38 l-33 33 -25 -33 -26 -34 31 -30 c41 -41 37 -94 -9 -129
-28 -21 -92 -5 -128 32 -36 38 -35 60 3 96 27 26 31 49 8 49 -14 0 -44 55 -44
80 0 6 11 22 25 35 37 38 97 35 138 -6z m614 6 c34 -24 47 -77 28 -115 -15
-29 -15 -32 5 -59 24 -34 26 -83 5 -104 -38 -38 -130 -24 -155 23 -16 30 -12
69 9 82 22 13 18 29 -15 66 -28 30 -30 49 -6 78 36 44 90 56 129 29z m-187
-175 c27 -27 27 -89 -1 -119 l-21 -23 26 -27 c45 -46 29 -134 -25 -146 -38 -9
-94 11 -117 40 -28 35 -18 93 19 114 31 17 39 41 14 41 -25 0 -55 38 -55 70 0
46 31 70 90 70 37 0 55 -5 70 -20z m-1555 -70 c40 0 43 -2 47 -30 l5 -30 -52
0 c-54 0 -77 -15 -104 -67 -7 -15 -17 -20 -31 -16 -15 4 -20 0 -20 -15 0 -11
-3 -27 -6 -35 -3 -10 2 -18 16 -22 12 -4 28 -22 37 -41 16 -33 17 -33 31 -13
19 28 54 39 98 32 24 -4 38 -12 42 -25 11 -44 32 -9 32 55 0 61 10 71 46 52
42 -22 86 -18 129 11 l38 25 27 -26 c35 -34 95 -43 137 -22 33 18 43 49 43
143 0 28 3 54 6 57 4 4 20 -5 36 -18 23 -19 41 -25 78 -25 44 0 48 -2 55 -27
3 -14 15 -37 25 -51 15 -18 17 -29 9 -43 -5 -10 -13 -19 -18 -19 -8 0 -31 -44
-31 -60 0 -5 13 -24 29 -42 16 -18 41 -46 54 -63 22 -26 33 -31 89 -35 34 -3
62 -9 61 -15 0 -5 3 -18 8 -27 8 -15 4 -16 -41 -11 -59 7 -94 -12 -114 -59
l-13 -30 -7 26 c-8 34 -60 66 -107 66 -41 0 -60 -12 -87 -58 -27 -47 -34 -28
-28 78 5 82 4 91 -17 115 -44 52 -148 49 -177 -4 -11 -21 -12 -21 -44 14 -28
29 -40 35 -75 35 -33 0 -47 -6 -71 -31 -16 -18 -30 -40 -30 -49 0 -33 -21 -78
-41 -86 -20 -9 -20 -9 1 -34 15 -18 20 -35 18 -65 -2 -22 -7 -38 -12 -37 -5 2
-13 -3 -18 -12 -6 -11 -23 -16 -54 -16 -51 0 -104 38 -104 76 0 21 50 74 70
74 5 0 -9 19 -32 42 -38 39 -42 40 -54 24 -7 -10 -32 -22 -55 -26 -37 -7 -47
-5 -75 18 -43 34 -50 65 -26 113 17 34 17 39 4 39 -9 0 -26 10 -39 22 l-24 22
-24 -29 c-30 -37 -30 -41 -5 -62 29 -25 27 -86 -4 -110 -26 -21 -44 -63 -27
-63 6 0 11 -7 11 -15 0 -22 52 -19 92 4 18 11 52 19 75 19 36 1 46 -4 64 -29
18 -25 19 -34 9 -64 -13 -40 -28 -50 -85 -59 -50 -9 -89 17 -98 64 -7 30 -37
43 -37 15 0 -32 -23 -63 -54 -70 -45 -11 -67 -6 -103 21 -43 32 -45 74 -6 110
21 20 36 25 68 23 39 -3 59 14 20 17 -39 3 -62 16 -79 45 -19 33 -15 58 14 84
26 24 25 38 -5 66 -40 39 -29 86 27 115 41 21 93 12 129 -22 l27 -26 16 25
c32 49 139 43 152 -8 6 -25 18 -32 28 -17 3 5 6 40 7 78 1 38 3 72 6 76 2 4
20 -4 40 -17 24 -17 50 -25 78 -25z m2180 -90 c4 -7 -3 -8 -22 -4 -38 9 -42
14 -10 14 14 0 29 -5 32 -10z m-375 -51 c0 -6 -4 -7 -10 -4 -5 3 -10 11 -10
16 0 6 5 7 10 4 6 -3 10 -11 10 -16z m60 -24 c0 -8 -2 -15 -4 -15 -2 0 -6 7
-10 15 -3 8 -1 15 4 15 6 0 10 -7 10 -15z m-90 -215 c0 -5 -7 -10 -16 -10 -8
0 -12 5 -9 10 3 6 10 10 16 10 5 0 9 -4 9 -10z m350 -6 c0 -8 -4 -12 -10 -9
-5 3 -10 10 -10 16 0 5 5 9 10 9 6 0 10 -7 10 -16z m37 -16 c-3 -8 -6 -5 -6 6
-1 11 2 17 5 13 3 -3 4 -12 1 -19z m-199 -5 c11 -10 29 -26 42 -36 19 -16 22
-26 17 -64 -3 -31 -11 -49 -27 -60 l-23 -16 31 -26 c59 -50 36 -141 -36 -141
-32 0 -84 23 -102 45 -15 19 -30 19 -30 2 0 -7 -12 -25 -27 -40 -26 -24 -31
-25 -75 -16 -80 17 -115 90 -65 137 46 43 97 38 145 -17 22 -25 23 -26 37 -7
8 11 15 24 15 28 0 5 15 15 33 23 l32 13 -26 10 c-40 16 -59 40 -59 77 0 40
41 85 78 85 13 0 20 4 17 10 -10 16 3 12 23 -7z m-406 -23 c52 -32 66 -62 51
-107 -7 -20 -17 -29 -36 -31 -32 -4 -35 -18 -7 -27 71 -23 59 -136 -16 -159
-28 -8 -74 12 -74 33 0 13 8 16 38 13 51 -4 66 8 57 47 -4 21 -14 33 -30 37
-28 7 -71 -19 -78 -47 -3 -12 -10 -18 -16 -14 -19 11 -12 48 14 75 l26 27 -36
36 c-19 19 -35 44 -35 55 0 25 37 72 56 72 8 0 12 5 9 10 -12 20 31 9 77 -20z
m217 15 c45 -23 55 -74 24 -126 -15 -25 -23 -29 -64 -29 -41 0 -50 4 -78 37
-17 20 -31 42 -31 49 0 7 14 29 31 49 35 39 70 45 118 20z m-406 -38 c20 -25
17 -94 -5 -109 -21 -13 -111 -5 -116 11 -4 11 4 13 36 7 37 -5 43 -3 58 18 23
37 14 58 -36 84 l-45 24 45 -7 c28 -4 52 -15 63 -28z m829 18 c57 -15 76 -88
33 -130 -51 -52 -138 -22 -156 52 -8 35 -6 40 21 66 30 27 39 28 102 12z
m-939 -11 c3 -4 0 -13 -8 -21 -8 -8 -15 -26 -15 -40 0 -15 -5 -23 -12 -21 -29
10 -19 88 11 88 10 0 20 -3 24 -6z m1078 -81 c23 -13 46 -19 63 -16 14 3 26 1
26 -5 0 -5 -16 -12 -35 -14 -19 -2 -35 0 -35 4 0 4 -6 8 -13 8 -19 0 -57 34
-57 51 0 9 3 10 8 4 4 -6 23 -20 43 -32z m-2506 -73 c8 -7 15 -19 15 -26 0 -8
5 -14 10 -14 17 0 0 -73 -21 -91 -18 -16 -18 -17 0 -34 34 -30 44 -69 30 -112
-7 -21 -19 -43 -28 -50 -9 -7 -11 -13 -6 -13 10 0 37 -46 49 -84 4 -10 1 -25
-6 -34 -8 -10 -13 -47 -13 -102 0 -96 -8 -114 -55 -124 -34 -6 -46 -5 -42 7 1
5 -2 6 -7 3 -11 -7 -81 32 -81 44 0 24 -33 16 -63 -15 -29 -30 -41 -35 -79
-35 -35 0 -49 5 -70 28 -42 44 -44 69 -12 103 l29 30 -28 48 c-33 59 -34 81
-4 109 51 48 126 51 169 5 21 -22 23 -32 20 -112 -3 -70 0 -90 12 -100 13 -11
16 -11 16 2 0 8 7 17 15 21 19 7 20 26 1 26 -9 0 -15 19 -19 57 -7 63 4 90 47
118 l24 16 -29 29 c-41 40 -40 92 2 131 17 16 26 29 20 29 -6 0 -11 6 -11 13
0 7 -11 23 -25 35 -14 12 -25 30 -25 40 0 19 30 51 64 69 21 12 79 2 101 -17z
m860 0 c4 -6 10 -8 14 -5 5 2 16 -4 26 -15 27 -30 10 -80 -35 -102 -42 -20
-76 -14 -112 19 -35 34 -40 58 -16 88 16 21 28 25 68 25 27 0 52 -5 55 -10z
m1630 -40 c-3 -5 -11 -10 -16 -10 -6 0 -7 5 -4 10 3 6 11 10 16 10 6 0 7 -4 4
-10z m-78 -52 c-3 -7 -5 -2 -5 12 0 14 2 19 5 13 2 -7 2 -19 0 -25z m87 -17
c-7 -7 -34 28 -34 43 1 6 10 0 21 -13 11 -13 17 -27 13 -30z m116 -9 c0 -5
-11 -14 -24 -22 -26 -13 -56 -8 -56 10 0 6 4 9 9 6 5 -4 20 -2 33 3 30 12 38
13 38 3z m-3278 -49 c24 -28 28 -50 17 -83 -13 -37 -36 -50 -87 -50 -50 0 -84
28 -86 72 -5 62 11 74 100 77 28 1 46 -5 56 -16z m1334 -19 c52 -40 44 -83
-28 -156 -10 -10 -18 -22 -18 -27 0 -5 -11 -8 -25 -8 -14 0 -31 -6 -39 -12
-21 -18 -30 -62 -14 -72 20 -13 92 -11 106 3 16 16 15 49 -3 72 -22 29 -6 40
21 15 17 -16 24 -33 24 -61 0 -32 -5 -41 -32 -58 -39 -24 -81 -26 -98 -5 -7 8
-17 15 -22 15 -18 0 -38 28 -38 53 0 21 39 84 40 65 0 -10 40 24 40 34 0 5 -9
8 -20 8 -11 0 -20 7 -20 15 0 8 -4 15 -10 15 -5 0 -9 3 -8 8 0 4 -2 15 -7 25
-12 27 11 66 48 82 46 20 64 18 103 -11z m215 3 c26 -18 34 -30 35 -59 2 -24
-4 -45 -16 -60 -38 -47 -146 -19 -165 42 -9 30 13 70 47 85 45 20 60 18 99 -8z
m1729 -12 c39 -20 52 -67 33 -115 -20 -49 -22 -50 -80 -38 -57 11 -91 40 -99
82 -12 69 71 110 146 71z m-2155 -161 c23 -21 26 -31 22 -60 -7 -40 -25 -61
-66 -75 -26 -9 -37 -7 -72 13 -23 12 -47 31 -53 40 -17 27 4 71 44 90 50 26
92 23 125 -8z m1526 -3 c63 -63 9 -152 -82 -135 -43 9 -59 21 -76 62 -16 38
-9 55 33 83 43 28 90 25 125 -10z m453 -35 c19 -25 19 -27 3 -61 -20 -41 -51
-56 -102 -48 -45 7 -85 51 -78 86 6 30 39 63 68 69 32 6 88 -18 109 -46z
m-257 24 c40 -14 56 -49 41 -92 -15 -46 -27 -57 -71 -62 -32 -4 -43 -1 -69 24
-17 17 -35 30 -39 30 -14 0 -10 53 5 72 26 34 81 46 133 28z m-3538 -166 c43
-36 43 -88 0 -132 -22 -22 -29 -37 -24 -51 3 -12 11 -20 17 -18 18 3 31 -46
24 -86 -5 -27 -12 -37 -26 -37 -10 0 -22 -5 -26 -11 -4 -7 -22 -9 -47 -6 -43
6 -107 58 -107 88 0 10 21 35 46 57 l46 39 -35 27 c-19 15 -38 38 -41 51 -21
81 103 138 173 79z m217 11 c52 -27 60 -99 17 -140 -34 -30 -70 -32 -123 -5
-45 23 -56 47 -40 95 19 58 87 81 146 50z m180 7 c-3 -5 8 -7 23 -4 51 7 90
-74 61 -128 -13 -24 -66 -41 -105 -34 -35 6 -85 50 -85 75 0 32 23 69 42 69
11 0 17 4 13 9 -4 8 6 13 48 20 5 0 6 -3 3 -7z m1124 -6 c0 -8 -12 -21 -27
-28 -39 -19 -50 -42 -33 -72 18 -35 73 -36 105 -2 l23 25 -29 33 c-15 18 -28
36 -29 41 -1 17 28 5 57 -25 29 -31 30 -35 20 -67 -12 -35 -56 -69 -89 -70
-10 -1 -26 7 -37 18 -10 10 -29 21 -43 24 -58 15 -31 103 37 124 22 6 41 12
43 12 1 1 2 -6 2 -13z m-835 -21 c28 -27 33 -79 10 -109 -16 -22 -98 -35 -109
-17 -4 6 -14 11 -23 11 -22 0 -42 30 -43 63 0 70 112 106 165 52z m135 5 c0
-4 -11 -15 -25 -24 -43 -28 -27 -76 26 -76 15 0 37 9 50 19 20 16 22 23 14 47
-7 18 -18 29 -29 29 -11 0 -21 6 -23 13 -6 15 31 16 58 1 11 -5 24 -22 30 -36
8 -21 5 -33 -17 -66 l-26 -39 -56 6 c-32 3 -58 5 -59 6 -2 0 -3 7 -3 15 0 8
-4 15 -8 15 -5 0 -13 10 -19 22 -8 18 -5 28 19 54 20 22 35 30 49 27 10 -3 19
-9 19 -13z m2960 -41 c0 -5 -4 -9 -10 -9 -5 0 -10 7 -10 16 0 8 5 12 10 9 6
-3 10 -10 10 -16z m-3595 -133 c87 -45 85 -141 -3 -161 -56 -12 -142 41 -142
88 0 20 39 67 64 77 31 13 50 12 81 -4z m260 -18 c14 -16 25 -38 25 -49 0 -31
-29 -79 -48 -81 -9 -1 -24 -2 -32 -3 -8 0 -21 -4 -28 -9 -17 -11 -42 0 -42 18
0 8 -9 18 -20 21 -27 9 -36 49 -17 78 19 29 72 56 109 55 19 -1 37 -11 53 -30z
m735 -39 c0 -10 -4 -19 -10 -19 -5 0 -10 12 -10 26 0 14 4 23 10 19 6 -3 10
-15 10 -26z m2637 -11 c-3 -8 -6 -5 -6 6 -1 11 2 17 5 13 3 -3 4 -12 1 -19z
m-2517 -68 c0 -5 -4 -10 -9 -10 -6 0 -13 5 -16 10 -3 6 1 10 9 10 9 0 16 -4
16 -10z m190 -50 c12 -8 11 -10 -7 -10 -13 0 -23 5 -23 10 0 13 11 13 30 0z
m86 -8 c6 -4 16 -17 23 -29 13 -26 -3 -73 -26 -73 -7 0 -13 -4 -13 -10 0 -22
-40 -31 -78 -19 -20 7 -40 12 -44 11 -4 -1 -13 8 -19 19 -9 17 -8 23 2 30 10
6 11 9 2 9 -20 0 -15 38 6 50 21 11 43 -7 23 -19 -6 -3 -12 -20 -14 -36 -3
-27 0 -30 32 -35 47 -8 83 5 96 35 10 20 8 27 -10 43 -11 11 -28 22 -36 25 -8
3 -1 6 15 6 17 0 35 -3 41 -7z m2859 -12 c-25 -11 -55 -12 -55 -2 0 4 17 8 38
9 28 1 32 0 17 -7z m175 -20 c0 -5 -4 -10 -10 -10 -5 0 -10 5 -10 10 0 6 5 10
10 10 6 0 10 -4 10 -10z m-253 -30 c-13 -34 -27 -40 -27 -10 0 15 20 37 37 40
1 0 -4 -13 -10 -30z m216 -21 c-4 -13 -9 -17 -16 -10 -12 12 -1 45 12 37 5 -3
7 -15 4 -27z m-4612 -106 c34 -20 43 -43 35 -86 -11 -57 -140 -105 -153 -57
-3 11 -9 20 -14 20 -5 0 -16 14 -24 30 -15 29 -15 33 5 60 12 16 29 34 38 40
26 15 81 12 113 -7z m2259 8 c0 -5 -12 -12 -27 -16 -56 -14 -83 -73 -44 -95
30 -15 66 -12 91 8 22 18 23 20 7 52 -21 40 -21 40 -3 40 23 0 46 -29 46 -57
0 -35 -29 -81 -57 -88 -32 -8 -29 -20 10 -31 45 -13 63 -54 48 -105 -19 -65
-83 -80 -149 -36 -55 37 -55 108 1 135 32 15 34 27 8 42 -65 34 -74 115 -18
142 36 17 87 23 87 9z m-1330 -16 c14 -16 10 -18 -14 -9 -9 3 -16 10 -16 15 0
14 16 11 30 -6z m135 -5 c3 -6 -1 -7 -9 -4 -18 7 -21 14 -7 14 6 0 13 -4 16
-10z m-26 -23 c0 -9 -2 -8 -6 1 -2 6 -10 9 -15 6 -7 -4 -8 -2 -4 5 9 13 26 5
25 -12z m135 7 c3 -8 2 -12 -4 -9 -6 3 -10 10 -10 16 0 14 7 11 14 -7z m-392
-16 c-7 -7 -12 -8 -12 -2 0 14 12 26 19 19 2 -3 -1 -11 -7 -17z m3753 12 c3
-5 2 -10 -4 -10 -5 0 -13 5 -16 10 -3 6 -2 10 4 10 5 0 13 -4 16 -10z m-3587
-25 c-3 -3 -9 2 -12 12 -6 14 -5 15 5 6 7 -7 10 -15 7 -18z m2582 6 c0 -6 -4
-13 -10 -16 -5 -3 -10 1 -10 9 0 9 5 16 10 16 6 0 10 -4 10 -9z m365 -1 c3 -5
1 -10 -4 -10 -6 0 -11 5 -11 10 0 6 2 10 4 10 3 0 8 -4 11 -10z m-2874 -9 c-9
-6 -10 -11 -2 -15 6 -4 11 -15 11 -24 -1 -12 -5 -10 -14 8 -15 26 -12 40 7 40
8 0 8 -3 -2 -9z m-241 -11 c0 -5 -4 -10 -10 -10 -5 0 -10 5 -10 10 0 6 5 10
10 10 6 0 10 -4 10 -10z m151 -43 c-8 -8 -11 -5 -11 9 0 27 14 41 18 19 2 -9
-1 -22 -7 -28z m252 13 c-5 -19 -35 -32 -105 -44 -19 -3 -27 0 -31 14 -4 16
-2 17 13 8 24 -15 88 -1 100 22 14 26 30 26 23 0z m-273 -30 c0 -4 -6 -10 -13
-13 -17 -6 -68 3 -63 12 6 9 76 11 76 1z m3134 -10 c10 0 17 -3 13 -6 -10 -10
-68 7 -61 18 4 6 10 6 17 -1 6 -6 20 -11 31 -11z m256 -4 c0 -3 -4 -8 -10 -11
-5 -3 -10 -1 -10 4 0 6 5 11 10 11 6 0 10 -2 10 -4z m197 -2 c-3 -3 -12 -4
-19 -1 -8 3 -5 6 6 6 11 1 17 -2 13 -5z m-2927 -24 c0 -5 6 -10 14 -10 7 0 25
-9 40 -21 70 -55 -10 -167 -96 -135 -10 3 -24 8 -32 10 -26 8 -50 54 -37 70 6
7 10 20 8 27 -2 8 -2 11 0 8 2 -3 19 9 37 27 33 33 66 45 66 24z m-900 -20 c0
-5 -7 -7 -15 -4 -8 4 -15 8 -15 10 0 2 7 4 15 4 8 0 15 -4 15 -10z m230 -6 c0
-2 -9 -4 -21 -4 -11 0 -18 4 -14 10 5 8 35 3 35 -6z m1166 -4 c60 -38 57 -124
-5 -151 -30 -14 -41 -29 -21 -29 6 0 22 -12 35 -26 40 -43 29 -115 -22 -146
l-26 -15 21 -21 c14 -14 17 -22 9 -26 -7 -2 -4 -5 5 -5 10 -1 20 -12 24 -26 8
-31 -29 -94 -59 -99 -39 -7 -77 -4 -77 5 0 5 -6 9 -14 9 -8 0 -23 13 -33 30
l-19 30 -14 -22 c-29 -43 -51 -58 -80 -58 -17 0 -30 5 -30 13 0 8 -3 8 -9 -2
-11 -17 -41 -7 -41 13 0 8 -9 18 -20 21 -38 12 -23 98 21 117 34 15 34 38 2
53 -22 9 -36 31 -48 73 -5 17 2 31 28 57 47 47 92 48 142 4 46 -41 48 -87 5
-130 -29 -30 -31 -59 -4 -59 8 0 14 -5 14 -10 0 -6 8 -20 19 -31 18 -20 18
-20 35 6 10 15 22 25 29 22 6 -2 19 5 30 16 19 19 19 20 -6 43 -15 13 -30 24
-35 24 -6 0 -13 16 -16 35 -8 39 17 85 55 105 10 6 19 18 19 26 0 8 -4 13 -8
10 -5 -3 -21 5 -36 17 -25 20 -26 26 -20 65 5 31 13 46 28 52 12 5 17 9 11 10
-5 0 -5 4 2 8 25 16 76 12 109 -8z m-1489 -5 c0 -8 -4 -15 -9 -15 -4 0 -8 7
-8 15 0 8 4 15 8 15 5 0 9 -7 9 -15z m248 5 c-3 -5 -10 -10 -16 -10 -5 0 -9 5
-9 10 0 6 7 10 16 10 8 0 12 -4 9 -10z m-110 -21 c10 -30 2 -32 -12 -3 -6 13
-7 24 -3 24 5 0 12 -9 15 -21z m225 -47 c0 -32 -8 -44 -22 -36 -5 3 -4 12 3
20 6 7 9 21 5 29 -3 8 -1 15 4 15 6 0 10 -13 10 -28z m-170 -2 c0 -5 -4 -10
-10 -10 -5 0 -10 5 -10 10 0 6 5 10 10 10 6 0 10 -4 10 -10z m3583 -50 c-3
-11 -7 -20 -9 -20 -2 0 -4 9 -4 20 0 11 4 20 9 20 5 0 7 -9 4 -20z m-2572 -5
c-1 -15 -24 -12 -29 3 -3 9 2 13 12 10 10 -1 17 -7 17 -13z m2069 -5 c0 -5 -6
-10 -14 -10 -8 0 -18 5 -21 10 -3 6 3 10 14 10 12 0 21 -4 21 -10z m-2226 -59
c34 -28 27 -108 -12 -137 -24 -19 -79 -17 -115 4 -41 22 -47 30 -47 67 0 38 7
48 48 72 25 16 41 19 72 13 22 -4 46 -13 54 -19z m666 0 c8 -10 23 -20 33 -24
21 -8 22 -25 2 -74 -28 -68 -109 -80 -164 -24 -42 43 -40 86 5 116 39 26 103
29 124 6z m-2360 0 c14 -5 24 -14 22 -22 -2 -8 0 -11 4 -7 14 14 34 -15 34
-49 0 -41 -25 -93 -45 -93 -22 0 -19 -9 14 -40 32 -31 75 -32 119 -4 30 19
113 11 135 -14 27 -30 29 -74 7 -111 -21 -33 -22 -33 -78 -27 -31 3 -60 5 -63
6 -22 1 -49 41 -49 74 0 20 -4 36 -9 36 -10 0 -15 -13 -26 -67 -9 -43 -43 -64
-97 -59 -24 3 -46 5 -50 5 -14 2 -50 63 -50 86 0 27 30 72 55 80 23 8 22 22
-4 30 -29 9 -59 63 -59 105 0 59 66 92 140 71z m1442 -13 c46 -32 52 -86 12
-123 -28 -26 -44 -32 -44 -15 0 13 -33 13 -47 -1 -15 -15 -36 -2 -67 40 -23
30 -24 36 -12 65 23 57 99 74 158 34z m-1814 -43 c-11 -25 -28 -25 -28 0 0 12
13 22 32 24 4 1 3 -10 -4 -24z m2907 -65 c3 -5 -1 -10 -10 -10 -9 0 -13 5 -10
10 3 6 8 10 10 10 2 0 7 -4 10 -10z m913 -8 c2 -7 -2 -10 -12 -6 -9 3 -16 11
-16 16 0 13 23 5 28 -10z m302 3 c-7 -8 -17 -15 -22 -15 -6 0 -5 7 2 15 7 8
17 15 22 15 6 0 5 -7 -2 -15z m-490 -5 c0 -5 -7 -10 -16 -10 -8 0 -12 5 -9 10
3 6 10 10 16 10 5 0 9 -4 9 -10z m904 -11 c-27 -11 -44 -11 -44 0 0 11 40 20
54 12 5 -2 1 -8 -10 -12z m-4876 -12 c3 -12 -4 -17 -22 -17 -28 0 -33 9 -14
28 15 15 32 10 36 -11z m462 19 c0 -3 -4 -8 -10 -11 -5 -3 -10 -1 -10 4 0 6 5
11 10 11 6 0 10 -2 10 -4z m1497 -99 c14 -31 7 -62 -22 -93 -18 -20 -32 -24
-77 -24 -57 0 -67 6 -95 57 -8 14 -9 24 -3 28 6 3 10 15 10 27 0 11 8 22 20
25 11 3 20 9 20 14 0 5 11 9 24 9 14 0 27 4 30 9 10 15 81 -25 93 -52z m-499
26 c19 -9 32 -23 32 -34 0 -23 22 -37 28 -18 3 8 21 29 40 47 30 29 38 32 70
26 21 -4 49 -16 65 -27 37 -28 38 -83 2 -126 -19 -22 -24 -36 -19 -55 3 -14
10 -24 15 -21 11 8 29 -28 29 -60 0 -14 -6 -28 -14 -31 -8 -3 -16 -14 -19 -24
-11 -41 -103 -38 -150 5 -39 37 -37 78 8 119 40 37 43 46 15 46 -11 0 -20 3
-20 8 0 4 -9 18 -19 31 l-18 24 -14 -29 c-10 -21 -25 -32 -52 -38 -20 -5 -37
-16 -37 -23 0 -8 4 -12 9 -9 5 3 23 -7 40 -23 24 -23 31 -37 31 -68 0 -21 -7
-47 -15 -57 -8 -11 -15 -16 -15 -10 0 5 -7 1 -15 -10 -12 -15 -22 -17 -61 -11
-51 7 -83 35 -84 72 0 13 -9 28 -20 35 -11 7 -20 21 -20 30 0 19 16 25 22 8 2
-6 27 1 61 17 56 27 72 43 43 43 -24 0 -74 49 -81 80 -8 36 14 72 58 94 33 16
49 14 105 -11z m-246 6 c47 -25 42 -131 -7 -149 -30 -12 -117 -11 -109 1 3 5
-2 6 -10 3 -9 -3 -16 -2 -16 4 0 14 45 24 75 16 59 -15 92 76 40 110 -14 9
-25 12 -25 7 0 -5 -12 -12 -27 -16 -44 -11 -65 -34 -58 -67 4 -17 2 -28 -4
-28 -6 0 -11 7 -11 15 0 8 -5 15 -11 15 -15 0 -3 61 14 72 6 5 24 6 39 4 19
-4 26 -2 22 7 -5 15 62 20 88 6z m1688 -28 c0 -12 -20 -25 -27 -18 -7 7 6 27
18 27 5 0 9 -4 9 -9z m2252 -73 c-7 -7 -12 -8 -12 -2 0 14 12 26 19 19 2 -3
-1 -11 -7 -17z m-111 -25 c13 -16 12 -17 -3 -4 -10 7 -18 15 -18 17 0 8 8 3
21 -13z m79 -8 c-14 -16 -50 -21 -50 -6 0 9 20 17 49 20 11 1 11 -2 1 -14z
m-2218 -70 c6 -14 8 -28 4 -33 -9 -8 -36 26 -36 45 0 22 20 14 32 -12z m-2429
-7 c55 -22 73 -98 35 -143 -20 -23 -32 -26 -87 -28 -63 -2 -65 -1 -88 32 -15
22 -22 44 -19 60 2 14 5 32 5 39 1 15 66 46 102 50 13 1 37 -3 52 -10z m2557
-119 c0 -11 -27 -12 -34 0 -3 4 -3 11 0 14 8 8 34 -3 34 -14z m220 11 c0 -5
-7 -10 -16 -10 -8 0 -12 5 -9 10 3 6 10 10 16 10 5 0 9 -4 9 -10z m1637 -26
c-3 -3 -12 -4 -19 -1 -8 3 -5 6 6 6 11 1 17 -2 13 -5z m432 -106 c-8 -14 -14
-18 -17 -10 -4 13 17 46 25 38 3 -2 -1 -15 -8 -28z m-1299 -89 c0 -5 -12 -9
-27 -9 -26 0 -26 1 -8 14 20 14 35 12 35 -5z m-3600 -9 c0 -5 -7 -10 -16 -10
-8 0 -12 5 -9 10 3 6 10 10 16 10 5 0 9 -4 9 -10z m237 4 c-3 -3 -12 -4 -19
-1 -8 3 -5 6 6 6 11 1 17 -2 13 -5z m243 -4 c0 -5 -9 -10 -21 -10 -11 0 -17 5
-14 10 3 6 13 10 21 10 8 0 14 -4 14 -10z m230 0 c0 -5 -7 -10 -16 -10 -8 0
-12 5 -9 10 3 6 10 10 16 10 5 0 9 -4 9 -10z m3312 -62 c-7 -7 -12 -8 -12 -2
0 14 12 26 19 19 2 -3 -1 -11 -7 -17z m-3992 -69 c0 -5 -4 -9 -10 -9 -5 0 -10
7 -10 16 0 8 5 12 10 9 6 -3 10 -10 10 -16z m2805 -49 c3 -5 -1 -10 -10 -10
-9 0 -13 5 -10 10 3 6 8 10 10 10 2 0 7 -4 10 -10z m521 -27 c-3 -3 -13 -2
-23 2 -17 8 -17 8 0 12 9 3 18 10 18 16 1 7 3 4 6 -6 3 -10 2 -21 -1 -24z
m-1216 23 c0 -11 -19 -15 -25 -6 -3 5 1 10 9 10 9 0 16 -2 16 -4z m-1420 -16
c0 -5 -6 -10 -14 -10 -8 0 -18 5 -21 10 -3 6 3 10 14 10 12 0 21 -4 21 -10z
m2840 -80 c0 -16 -4 -30 -10 -30 -11 0 -14 43 -3 53 11 12 13 8 13 -23z m-658
-132 c-8 -8 -9 -4 -5 13 4 13 8 18 11 10 2 -7 -1 -18 -6 -23z m408 22 c0 -5
-4 -10 -10 -10 -5 0 -10 5 -10 10 0 6 5 10 10 10 6 0 10 -4 10 -10z m34 -98
c-4 -18 -11 -32 -15 -32 -9 0 -2 44 8 63 10 16 13 0 7 -31z"/>
<path d="M3322 5261 c-23 -14 -10 -54 20 -62 41 -11 75 19 59 49 -12 23 -53
30 -79 13z"/>
<path d="M3108 5099 c-25 -14 -22 -36 7 -55 32 -21 71 -12 79 18 10 39 -44 62
-86 37z"/>
<path d="M3348 5089 c-35 -20 -15 -49 32 -49 23 0 42 23 34 44 -7 18 -40 21
-66 5z"/>
<path d="M3120 4925 c-18 -21 -3 -46 33 -56 34 -9 60 10 55 42 -2 20 -9 25
-39 27 -24 2 -40 -2 -49 -13z"/>
<path d="M3330 4927 c-34 -17 -32 -48 3 -65 24 -12 31 -11 53 2 53 36 3 92
-56 63z"/>
<path d="M3099 4752 c-16 -42 25 -71 75 -53 18 8 26 18 26 35 0 30 -8 36 -56
40 -30 2 -37 -1 -45 -22z"/>
<path d="M3337 4762 c-36 -18 -33 -53 5 -66 38 -13 78 6 78 38 0 33 -44 48
-83 28z"/>
<path d="M3114 4585 c-8 -34 11 -55 50 -55 36 0 56 15 56 42 0 22 -29 38 -69
38 -24 0 -32 -5 -37 -25z"/>
<path d="M3553 5256 c-25 -12 -30 -45 -11 -64 16 -16 50 -15 74 2 15 12 17 19
8 32 -18 30 -46 42 -71 30z"/>
<path d="M3553 5097 c-30 -13 -29 -45 2 -59 45 -21 99 21 63 49 -23 17 -43 20
-65 10z"/>
<path d="M3534 4914 c-7 -29 0 -39 36 -47 29 -7 44 0 53 26 12 31 -3 47 -44
47 -33 0 -40 -4 -45 -26z"/>
<path d="M3548 4759 c-24 -14 -22 -35 4 -53 30 -21 51 -20 79 3 23 19 24 19 5
40 -20 22 -60 27 -88 10z"/>
<path d="M2941 5119 c-39 -8 -53 -26 -41 -50 20 -37 100 -30 100 9 -1 33 -23
49 -59 41z"/>
<path d="M4172 5089 c-47 -18 -36 -64 18 -72 67 -11 84 53 20 75 -8 3 -25 2
-38 -3z"/>
<path d="M4180 4931 c-48 -13 -33 -71 19 -71 35 0 54 14 49 35 -5 25 -39 43
-68 36z"/>
<path d="M4178 4749 c-45 -26 1 -79 56 -65 19 4 26 13 26 29 0 42 -41 60 -82
36z"/>
<path d="M2686 4944 c-29 -29 -16 -55 33 -67 26 -6 71 17 71 38 0 38 -74 59
-104 29z"/>
<path d="M2920 4783 c-8 -3 -21 -12 -27 -21 -19 -23 11 -52 53 -52 28 0 35 5
40 25 10 42 -20 64 -66 48z"/>
<path d="M2918 4608 c-34 -12 -38 -52 -7 -68 23 -13 78 -4 81 13 7 53 3 63
-22 64 -14 1 -37 -3 -52 -9z"/>
<path d="M3770 4600 c-52 -12 -30 -80 25 -80 27 0 58 33 53 56 -4 21 -43 33
-78 24z"/>
<path d="M3969 4596 c-46 -22 -32 -76 20 -76 38 1 58 20 51 49 -7 30 -40 43
-71 27z"/>
<path d="M3774 4430 c-22 -9 -38 -36 -29 -50 12 -19 62 -31 88 -21 36 14 37
53 2 69 -30 14 -32 14 -61 2z"/>
<path d="M3978 4409 c-36 -20 -9 -68 38 -69 11 0 29 9 38 19 37 41 -24 81 -76
50z"/>
<path d="M3959 4233 c-12 -32 -4 -42 46 -53 30 -7 40 -5 56 11 38 38 17 69
-48 69 -38 0 -45 -3 -54 -27z"/>
<path d="M4410 4581 c-19 -5 -25 -13 -25 -36 0 -23 6 -32 27 -39 46 -16 89 39
56 72 -13 13 -20 13 -58 3z"/>
<path d="M4403 4423 c-23 -9 -15 -53 12 -65 49 -22 98 25 63 60 -12 12 -52 15
-75 5z"/>
<path d="M4200 4421 c-19 -6 -24 -13 -22 -31 3 -29 18 -40 54 -40 17 0 31 7
38 19 13 25 13 27 -6 45 -17 17 -25 18 -64 7z"/>
<path d="M4180 4230 c-23 -44 41 -84 88 -54 24 16 29 43 10 62 -20 20 -86 15
-98 -8z"/>
<path d="M3315 4300 c-7 -12 2 -30 16 -30 12 0 12 27 0 35 -5 3 -12 1 -16 -5z"/>
<path d="M2285 4283 c-45 -11 -57 -39 -29 -67 36 -37 114 -3 99 43 -3 12 -10
21 -15 21 -5 0 -14 2 -22 4 -7 2 -22 1 -33 -1z"/>
<path d="M2468 4278 c-40 -33 -18 -78 37 -78 38 0 63 24 58 54 -7 34 -64 48
-95 24z"/>
<path d="M2499 4114 c-21 -26 1 -49 47 -49 35 0 39 3 42 26 2 20 -2 28 -20 33
-37 9 -55 7 -69 -10z"/>
<path d="M2270 4113 c-36 -14 -39 -46 -5 -61 44 -20 74 -15 81 13 3 14 4 32 0
40 -5 15 -46 19 -76 8z"/>
<path d="M2712 4089 c-23 -13 -32 -25 -28 -35 3 -9 6 -19 6 -24 0 -15 65 -18
93 -3 22 11 27 19 21 36 -13 44 -47 54 -92 26z"/>
<path d="M2250 3937 c-14 -7 -27 -24 -30 -42 -6 -29 -6 -30 38 -33 53 -4 86
19 76 52 -12 37 -40 45 -84 23z"/>
<path d="M2720 3943 c-25 -9 -50 -35 -50 -51 0 -40 77 -56 108 -21 25 26 18
57 -15 70 -13 5 -25 9 -26 8 -1 0 -9 -3 -17 -6z"/>
<path d="M2470 3927 c-35 -18 -38 -50 -5 -65 56 -26 95 -12 95 33 0 45 -38 59
-90 32z"/>
<path d="M4633 3910 c-16 -6 -21 -15 -18 -31 5 -27 22 -39 55 -39 38 0 52 14
48 46 -2 24 -8 29 -33 31 -16 1 -40 -2 -52 -7z"/>
<path d="M4637 3733 c-11 -10 -8 -51 3 -58 6 -4 7 -11 4 -17 -4 -7 5 -8 27 -3
60 13 75 38 41 68 -19 17 -63 23 -75 10z"/>
<path d="M4430 3709 c-15 -27 -7 -47 24 -58 34 -14 65 -3 72 25 8 33 -12 54
-52 54 -23 0 -37 -6 -44 -21z"/>
<path d="M4207 3902 c-22 -24 -21 -27 5 -52 38 -36 98 -22 98 23 0 43 -72 63
-103 29z"/>
<path d="M4428 3919 c-37 -21 -10 -79 36 -79 21 0 56 27 56 43 0 12 -44 47
-59 47 -9 0 -24 -5 -33 -11z"/>
<path d="M4864 3902 c-6 -4 -14 -17 -18 -29 -8 -25 24 -53 60 -53 22 0 54 28
54 48 0 28 -69 53 -96 34z"/>
<path d="M2483 3749 c-40 -12 -44 -19 -37 -58 6 -28 10 -31 45 -31 61 0 101
56 62 86 -21 15 -26 16 -70 3z"/>
<path d="M2467 3552 c-16 -20 4 -46 40 -50 35 -4 57 18 48 47 -5 17 -14 20
-41 18 -20 -1 -41 -8 -47 -15z"/>
<path d="M2213 3193 c-31 -47 28 -89 85 -59 26 14 29 19 23 48 -6 31 -9 33
-50 33 -34 1 -47 -4 -58 -22z"/>
<path d="M2456 3188 c-36 -51 47 -98 100 -57 6 5 14 6 17 2 4 -3 7 -1 7 5 0 6
-4 14 -10 17 -5 3 -10 14 -10 25 0 36 -80 43 -104 8z"/>
<path d="M3360 3757 c-42 -14 -49 -38 -19 -66 27 -25 47 -26 77 -5 27 19 26
51 -3 69 -16 10 -28 11 -55 2z"/>
<path d="M1813 3592 c-34 -3 -47 -29 -36 -70 4 -18 12 -22 47 -22 22 0 46 4
52 8 11 7 18 33 15 58 -2 16 -42 30 -78 26z"/>
<path d="M3130 3550 c-19 -19 -20 -24 -7 -43 16 -24 46 -32 83 -23 18 5 24 13
24 35 0 33 -14 46 -52 50 -17 1 -35 -6 -48 -19z"/>
<path d="M3358 3553 c-9 -12 -13 -27 -9 -43 6 -20 14 -26 43 -28 66 -6 95 57
37 77 -43 15 -53 14 -71 -6z"/>
<path d="M5104 3549 c-41 -15 -41 -57 0 -79 19 -10 29 -10 51 1 15 8 27 17 26
22 0 4 -1 16 -1 26 0 23 -46 42 -76 30z"/>
<path d="M2918 3396 c-21 -15 -24 -49 -5 -63 29 -23 60 -22 89 3 16 13 25 24
20 24 -5 0 -15 11 -22 25 -15 28 -53 33 -82 11z"/>
<path d="M4437 3382 c-10 -10 -17 -24 -17 -30 0 -16 41 -42 66 -42 24 0 54 29
54 53 0 36 -75 50 -103 19z"/>
<path d="M4877 3372 c-22 -24 -21 -35 1 -55 35 -32 102 -17 102 23 0 44 -73
66 -103 32z"/>
<path d="M4660 3362 c-44 -36 16 -101 68 -73 24 13 32 39 21 69 -10 28 -57 30
-89 4z"/>
<path d="M1097 3197 c-10 -10 -17 -28 -15 -40 2 -18 11 -23 44 -25 47 -3 74
16 74 53 0 20 -6 23 -42 27 -31 3 -47 -1 -61 -15z"/>
<path d="M1100 3011 c-19 -5 -26 -14 -28 -39 -2 -18 -2 -32 0 -33 81 -16 118
-4 118 37 0 37 -35 50 -90 35z"/>
<path d="M1340 3201 c-29 -25 -33 -32 -24 -48 13 -21 65 -29 94 -13 30 16 28
75 -2 84 -32 8 -30 9 -68 -23z"/>
<path d="M1573 3208 c-46 -22 -36 -71 17 -82 41 -8 70 11 70 46 0 42 -41 58
-87 36z"/>
<path d="M1780 3200 c-25 -25 -25 -35 0 -60 15 -15 28 -19 48 -14 41 10 62 23
62 39 0 23 -38 55 -65 55 -14 0 -34 -9 -45 -20z"/>
<path d="M1355 3020 c-3 -5 -15 -10 -25 -10 -13 0 -22 -9 -26 -27 -3 -16 -7
-34 -10 -40 -5 -20 91 -17 110 3 23 23 20 49 -9 68 -29 19 -32 19 -40 6z"/>
<path d="M1537 3013 c-20 -23 -22 -58 -5 -69 7 -4 35 -9 64 -10 l52 -2 -2 39
c-3 47 -2 47 -52 54 -31 6 -43 3 -57 -12z"/>
<path d="M1072 2645 c-28 -21 -30 -70 -3 -85 53 -28 101 -1 101 56 0 38 -1 39
-38 42 -22 1 -47 -4 -60 -13z"/>
<path d="M3383 2473 c-30 -6 -41 -57 -17 -84 33 -37 106 -16 109 32 1 13 -7
31 -19 41 -21 17 -32 19 -73 11z"/>
<path d="M2685 2464 c-24 -26 -32 -69 -17 -89 13 -18 80 -16 102 2 38 33 16
92 -33 93 -10 0 -15 5 -12 10 13 21 -17 9 -40 -16z"/>
<path d="M3150 2457 c0 -9 -7 -20 -16 -25 -10 -6 -14 -19 -12 -38 2 -23 9 -30
37 -35 67 -14 116 37 71 73 -12 10 -18 18 -14 18 5 0 2 4 -6 10 -9 6 -17 5
-21 -2 -6 -9 -12 -8 -23 1 -13 11 -16 11 -16 -2z"/>
<path d="M2950 2266 c-6 -8 -23 -16 -38 -18 -21 -2 -28 -10 -33 -38 -4 -19 -6
-36 -5 -37 11 -11 95 -17 114 -8 25 11 29 46 7 65 -8 7 -15 21 -15 31 0 23
-13 25 -30 5z"/>
<path d="M3180 2260 c-8 -4 -27 -13 -42 -19 -49 -19 -34 -67 25 -76 70 -12 99
30 55 79 -16 17 -28 22 -38 16z"/>
<path d="M2930 2060 c0 -5 -6 -10 -13 -10 -8 0 -24 -11 -36 -24 -19 -20 -21
-28 -12 -45 10 -17 21 -21 65 -21 40 0 55 4 60 16 12 31 6 53 -20 73 -29 23
-44 27 -44 11z"/>
<path d="M3170 2060 c0 -5 -10 -10 -23 -10 -40 0 -59 -38 -41 -84 9 -22 76
-21 96 2 27 31 29 51 6 77 -23 26 -38 32 -38 15z"/>
<path d="M2683 2263 c-19 -4 -23 -11 -23 -38 0 -24 6 -38 19 -45 26 -14 74
-13 89 2 19 19 14 55 -10 72 -22 16 -33 17 -75 9z"/>
<path d="M3357 2242 c-25 -27 -21 -57 8 -70 57 -26 108 0 103 51 -3 30 -6 32
-49 35 -34 2 -49 -2 -62 -16z"/>
<path d="M1022 2230 c-16 -14 -22 -28 -20 -47 3 -25 8 -28 41 -31 41 -3 64 10
77 43 18 47 -53 73 -98 35z"/>
<path d="M1042 2030 c-27 -16 -33 -26 -30 -48 2 -21 8 -27 28 -27 14 0 31 -4
39 -9 21 -13 66 41 51 60 -7 7 -9 17 -6 23 6 9 -15 21 -37 21 -7 0 -27 -9 -45
-20z"/>
<path d="M1264 2025 c-16 -16 -24 -34 -22 -48 3 -20 8 -22 60 -21 32 0 60 2
62 5 3 3 0 24 -6 47 -9 37 -14 42 -40 42 -18 0 -39 -10 -54 -25z"/>
<path d="M1058 1923 c7 -3 16 -2 19 1 4 3 -2 6 -13 5 -11 0 -14 -3 -6 -6z"/>
<path d="M2475 2270 c-4 -6 2 -10 12 -11 10 0 -2 -6 -27 -12 -49 -13 -61 -34
-40 -72 9 -18 19 -22 48 -20 58 4 72 13 72 49 0 17 -6 38 -13 47 -16 20 -45
31 -52 19z"/>
<path d="M2200 2043 c-35 -45 6 -100 62 -81 39 14 61 48 50 79 -13 34 -86 35
-112 2z"/>
<path d="M1757 2048 c-33 -12 -47 -53 -25 -75 9 -8 33 -17 56 -20 35 -5 42 -2
56 19 41 62 -8 105 -87 76z"/>
<path d="M1965 2035 c-42 -41 -30 -72 30 -79 45 -6 69 7 78 42 7 30 -23 62
-58 62 -14 0 -37 -11 -50 -25z"/>
<path d="M1983 1863 c-21 -11 -33 -25 -37 -46 -9 -43 9 -59 61 -55 36 2 48 8
61 30 15 26 15 29 -4 55 -26 34 -40 37 -81 16z"/>
<path d="M1755 1830 c-46 -12 -57 -25 -45 -54 9 -24 14 -27 39 -21 17 3 32 2
36 -4 20 -33 63 19 50 59 -6 19 -47 29 -80 20z"/>
<path d="M792 1833 c-27 -5 -46 -47 -33 -71 6 -10 24 -17 53 -18 50 -1 68 9
68 41 0 36 -39 57 -88 48z"/>
<path d="M3760 5257 c-17 -8 -25 -21 -25 -37 0 -21 5 -26 33 -28 54 -5 80 29
46 62 -19 19 -22 19 -54 3z"/>
<path d="M3962 5262 c-27 -3 -33 -7 -30 -25 2 -12 15 -28 29 -36 24 -13 29
-13 53 2 21 14 24 21 16 36 -12 23 -25 27 -68 23z"/>
<path d="M3968 5093 c-38 -6 -39 -48 -3 -65 52 -24 105 35 56 62 -11 5 -21 9
-23 9 -2 -1 -15 -4 -30 -6z"/>
<path d="M3750 5076 c-15 -15 -12 -43 6 -50 28 -11 62 -6 79 10 15 15 15 18
-1 35 -18 20 -66 23 -84 5z"/>
<path d="M4370 5065 c-9 -24 11 -51 45 -57 52 -10 75 38 32 66 -30 20 -68 16
-77 -9z"/>
<path d="M3741 4931 c-15 -27 -15 -29 18 -46 27 -13 31 -13 53 5 19 15 21 22
12 37 -16 26 -70 29 -83 4z"/>
<path d="M3955 4914 c-20 -20 -15 -35 17 -54 21 -11 31 -12 52 -2 33 15 33 45
1 60 -35 16 -51 15 -70 -4z"/>
<path d="M4368 4919 c-45 -26 9 -73 57 -51 14 6 25 18 25 25 0 33 -46 47 -82
26z"/>
<path d="M4573 4918 c-39 -19 -27 -62 20 -73 20 -5 33 -2 47 10 24 22 25 38 4
59 -18 18 -39 19 -71 4z"/>
<path d="M4384 4746 c-28 -22 -7 -50 40 -54 30 -3 38 1 45 20 5 14 5 28 -1 36
-14 16 -60 15 -84 -2z"/>
<path d="M4587 4753 c-14 -13 -7 -43 12 -53 31 -16 59 -12 72 12 10 18 8 24
-7 35 -19 14 -66 18 -77 6z"/>
<path d="M6187 4694 c-8 -8 1 -24 14 -24 5 0 9 7 9 15 0 15 -12 20 -23 9z"/>
<path d="M4610 4590 c-49 -12 -31 -80 21 -80 29 0 60 33 53 57 -6 23 -35 32
-74 23z"/>
<path d="M4632 4409 c-32 -12 -26 -50 9 -63 62 -22 106 24 57 58 -25 18 -33
19 -66 5z"/>
<path d="M1816 4271 c-12 -13 -15 -27 -11 -41 6 -18 13 -21 48 -18 35 3 43 7
51 31 8 22 7 30 -4 37 -25 16 -66 11 -84 -9z"/>
<path d="M2039 4269 c-21 -21 -21 -22 -3 -39 17 -17 47 -24 81 -21 18 2 28 62
12 72 -25 15 -69 9 -90 -12z"/>
<path d="M1596 4098 c-10 -39 -7 -48 19 -58 36 -14 85 6 85 34 0 32 -19 46
-61 46 -30 0 -38 -4 -43 -22z"/>
<path d="M2080 4111 c0 -5 -13 -12 -30 -16 -25 -5 -30 -12 -30 -35 0 -25 5
-30 36 -36 72 -13 109 32 62 76 -23 21 -38 26 -38 11z"/>
<path d="M1373 4095 c-38 -16 -42 -38 -11 -59 35 -25 72 -20 88 10 27 49 -16
77 -77 49z"/>
<path d="M1827 4083 c-15 -14 -6 -31 22 -43 34 -14 71 3 71 32 0 14 -9 18 -43
18 -24 0 -47 -3 -50 -7z"/>
<path d="M1942 3999 c-16 -26 -18 -36 -9 -60 14 -36 29 -37 47 -4 7 13 22 27
32 31 18 5 17 7 -3 35 -26 37 -42 37 -67 -2z"/>
<path d="M1635 3942 c-11 -2 -33 -8 -48 -14 -36 -14 -33 -47 5 -66 50 -24 106
24 76 66 -7 10 -22 16 -33 14z"/>
<path d="M1171 3930 c-87 -20 -68 -91 20 -78 15 2 27 13 33 31 14 38 -7 57
-53 47z"/>
<path d="M1345 3915 c-3 -8 -7 -21 -9 -29 -11 -35 68 -51 98 -20 18 17 19 24
10 48 -8 22 -93 23 -99 1z"/>
<path d="M1813 3923 c-7 -2 -13 -16 -13 -29 0 -50 91 -51 104 -1 3 11 3 24 0
29 -6 9 -71 10 -91 1z"/>
<path d="M2022 3918 c-19 -19 -14 -56 8 -68 46 -25 102 27 70 65 -15 18 -61
20 -78 3z"/>
<path d="M1133 3757 c-60 -20 -48 -77 17 -77 53 0 84 33 62 66 -11 18 -44 22
-79 11z"/>
<path d="M1595 3763 c-12 -2 -27 -13 -34 -25 -12 -19 -11 -24 9 -40 33 -26 81
-20 97 12 10 20 9 27 -4 42 -16 18 -27 19 -68 11z"/>
<path d="M1352 3748 c-31 -31 -2 -68 56 -68 35 0 55 20 50 52 -3 20 -10 23
-48 26 -26 2 -50 -2 -58 -10z"/>
<path d="M2024 3753 c-6 -5 -16 -18 -23 -31 -18 -34 1 -52 54 -52 34 0 44 4
55 26 10 18 11 30 4 42 -12 18 -71 28 -90 15z"/>
<path d="M1360 3567 c-49 -25 -33 -77 24 -77 57 1 84 41 50 74 -19 19 -40 20
-74 3z"/>
<path d="M660 3380 c-35 -35 -19 -70 33 -70 39 0 67 17 67 41 0 48 -63 66
-100 29z"/>
<path d="M879 3388 c-23 -9 -26 -50 -4 -68 9 -8 28 -10 54 -5 33 5 40 11 43
34 2 15 -1 32 -8 38 -12 12 -53 12 -85 1z"/>
<path d="M860 3196 c-15 -19 -9 -56 11 -69 9 -5 32 -7 52 -3 45 8 63 50 32 73
-25 17 -79 17 -95 -1z"/>
<path d="M855 2633 c-22 -7 -46 -20 -54 -28 -13 -13 -12 -18 9 -40 20 -21 30
-24 55 -19 41 9 55 22 55 51 0 41 -19 52 -65 36z"/>
<path d="M755 2600 c3 -5 8 -10 11 -10 2 0 4 5 4 10 0 6 -5 10 -11 10 -5 0 -7
-4 -4 -10z"/>
<path d="M568 2439 c-21 -12 -24 -49 -6 -67 19 -19 76 -14 98 8 21 21 23 29
14 54 -7 18 -78 22 -106 5z"/>
<path d="M833 2443 c-12 -2 -29 -15 -37 -28 -24 -36 -3 -65 46 -65 54 0 68 8
68 41 0 24 -32 62 -50 58 -3 -1 -15 -4 -27 -6z"/>
<path d="M2401 1084 c0 -11 3 -14 6 -6 3 7 2 16 -1 19 -3 4 -6 -2 -5 -13z"/>
</g>
</svg>
